<svg width="39" height="10" viewBox="0 0 39 10" fill="none" xmlns="http://www.w3.org/2000/svg">
<path d="M7.368 0.636V9H6.276V5.208H2.016V9H0.924V0.636H2.016V4.308H6.276V0.636H7.368ZM13.0246 9.084C12.2486 9.084 11.5406 8.904 10.9006 8.544C10.2606 8.176 9.75259 7.668 9.37659 7.02C9.00859 6.364 8.82459 5.628 8.82459 4.812C8.82459 3.996 9.00859 3.264 9.37659 2.616C9.75259 1.96 10.2606 1.452 10.9006 1.092C11.5406 0.724 12.2486 0.539999 13.0246 0.539999C13.8086 0.539999 14.5206 0.724 15.1606 1.092C15.8006 1.452 16.3046 1.956 16.6726 2.604C17.0406 3.252 17.2246 3.988 17.2246 4.812C17.2246 5.636 17.0406 6.372 16.6726 7.02C16.3046 7.668 15.8006 8.176 15.1606 8.544C14.5206 8.904 13.8086 9.084 13.0246 9.084ZM13.0246 8.136C13.6086 8.136 14.1326 8 14.5966 7.728C15.0686 7.456 15.4366 7.068 15.7006 6.564C15.9726 6.06 16.1086 5.476 16.1086 4.812C16.1086 4.14 15.9726 3.556 15.7006 3.06C15.4366 2.556 15.0726 2.168 14.6086 1.896C14.1446 1.624 13.6166 1.488 13.0246 1.488C12.4326 1.488 11.9046 1.624 11.4406 1.896C10.9766 2.168 10.6086 2.556 10.3366 3.06C10.0726 3.556 9.94059 4.14 9.94059 4.812C9.94059 5.476 10.0726 6.06 10.3366 6.564C10.6086 7.068 10.9766 7.456 11.4406 7.728C11.9126 8 12.4406 8.136 13.0246 8.136ZM25.5782 0.636L22.4222 9H21.1622L18.0062 0.636H19.1702L21.7982 7.848L24.4262 0.636H25.5782ZM27.8676 1.524V4.32H30.9156V5.22H27.8676V8.1H31.2756V9H26.7756V0.624H31.2756V1.524H27.8676ZM37.3319 9L35.3399 5.58H34.0199V9H32.9279V0.636H35.6279C36.2599 0.636 36.7919 0.744 37.2239 0.96C37.6639 1.176 37.9919 1.468 38.2079 1.836C38.4239 2.204 38.5319 2.624 38.5319 3.096C38.5319 3.672 38.3639 4.18 38.0279 4.62C37.6999 5.06 37.2039 5.352 36.5399 5.496L38.6399 9H37.3319ZM34.0199 4.704H35.6279C36.2199 4.704 36.6639 4.56 36.9599 4.272C37.2559 3.976 37.4039 3.584 37.4039 3.096C37.4039 2.6 37.2559 2.216 36.9599 1.944C36.6719 1.672 36.2279 1.536 35.6279 1.536H34.0199V4.704Z" fill="#212121" fill-opacity="0.7"/>
</svg>
