<svg width="72" height="13" viewBox="0 0 72 13" fill="none" xmlns="http://www.w3.org/2000/svg">
<path d="M9.836 12H8.012L2.524 3.696V12H0.7V0.863999H2.524L8.012 9.152V0.863999H9.836V12ZM20.3113 7.376C20.3113 7.70667 20.2899 8.00533 20.2473 8.272H13.5113C13.5646 8.976 13.8259 9.54133 14.2953 9.968C14.7646 10.3947 15.3406 10.608 16.0233 10.608C17.0046 10.608 17.6979 10.1973 18.1033 9.376H20.0712C19.8046 10.1867 19.3193 10.8533 18.6153 11.376C17.9219 11.888 17.0579 12.144 16.0233 12.144C15.1806 12.144 14.4233 11.9573 13.7513 11.584C13.0899 11.2 12.5673 10.6667 12.1833 9.984C11.8099 9.29067 11.6233 8.49067 11.6233 7.584C11.6233 6.67733 11.8046 5.88267 12.1673 5.2C12.5406 4.50667 13.0579 3.97333 13.7193 3.6C14.3913 3.22667 15.1593 3.04 16.0233 3.04C16.8553 3.04 17.5966 3.22133 18.2473 3.584C18.8979 3.94667 19.4046 4.45867 19.7673 5.12C20.1299 5.77067 20.3113 6.52267 20.3113 7.376ZM18.4073 6.8C18.3966 6.128 18.1566 5.58933 17.6873 5.184C17.2179 4.77867 16.6366 4.576 15.9433 4.576C15.3139 4.576 14.7753 4.77867 14.3273 5.184C13.8793 5.57867 13.6126 6.11733 13.5273 6.8H18.4073ZM33.9463 3.184L31.2103 12H29.2903L27.5143 5.488L25.7383 12H23.8183L21.0663 3.184H22.9223L24.7623 10.272L26.6343 3.184H28.5383L30.3303 10.24L32.1543 3.184H33.9463ZM47.2416 4.192C47.2416 4.75733 47.1083 5.29067 46.8416 5.792C46.575 6.29333 46.1483 6.704 45.5616 7.024C44.975 7.33333 44.223 7.488 43.3056 7.488H41.2896V12H39.4656V0.879999H43.3056C44.159 0.879999 44.879 1.02933 45.4656 1.328C46.063 1.616 46.5056 2.01067 46.7936 2.512C47.0923 3.01333 47.2416 3.57333 47.2416 4.192ZM43.3056 6C43.999 6 44.5163 5.84533 44.8576 5.536C45.199 5.216 45.3696 4.768 45.3696 4.192C45.3696 2.976 44.6816 2.368 43.3056 2.368H41.2896V6H43.3056ZM52.8053 12.144C51.9733 12.144 51.2213 11.9573 50.5493 11.584C49.8773 11.2 49.3493 10.6667 48.9653 9.984C48.5813 9.29067 48.3893 8.49067 48.3893 7.584C48.3893 6.688 48.5866 5.89333 48.9813 5.2C49.3759 4.50667 49.9146 3.97333 50.5973 3.6C51.2799 3.22667 52.0426 3.04 52.8853 3.04C53.7279 3.04 54.4906 3.22667 55.1733 3.6C55.8559 3.97333 56.3946 4.50667 56.7893 5.2C57.1839 5.89333 57.3813 6.688 57.3813 7.584C57.3813 8.48 57.1786 9.27467 56.7733 9.968C56.3679 10.6613 55.8133 11.2 55.1093 11.584C54.4159 11.9573 53.6479 12.144 52.8053 12.144ZM52.8053 10.56C53.2746 10.56 53.7119 10.448 54.1173 10.224C54.5333 10 54.8693 9.664 55.1253 9.216C55.3813 8.768 55.5093 8.224 55.5093 7.584C55.5093 6.944 55.3866 6.40533 55.1413 5.968C54.8959 5.52 54.5706 5.184 54.1653 4.96C53.7599 4.736 53.3226 4.624 52.8533 4.624C52.3839 4.624 51.9466 4.736 51.5413 4.96C51.1466 5.184 50.8319 5.52 50.5973 5.968C50.3626 6.40533 50.2453 6.944 50.2453 7.584C50.2453 8.53333 50.4853 9.26933 50.9653 9.792C51.4559 10.304 52.0693 10.56 52.8053 10.56ZM62.3844 12.144C61.691 12.144 61.067 12.0213 60.5124 11.776C59.9684 11.52 59.5364 11.1787 59.2164 10.752C58.8964 10.3147 58.7257 9.82933 58.7044 9.296H60.5924C60.6244 9.66933 60.8004 9.984 61.1204 10.24C61.451 10.4853 61.8617 10.608 62.3524 10.608C62.8644 10.608 63.259 10.512 63.5364 10.32C63.8244 10.1173 63.9684 9.86133 63.9684 9.552C63.9684 9.22133 63.8084 8.976 63.4884 8.816C63.179 8.656 62.683 8.48 62.0004 8.288C61.339 8.10667 60.8004 7.93067 60.3844 7.76C59.9684 7.58933 59.6057 7.328 59.2964 6.976C58.9977 6.624 58.8484 6.16 58.8484 5.584C58.8484 5.11467 58.987 4.688 59.2644 4.304C59.5417 3.90933 59.9364 3.6 60.4484 3.376C60.971 3.152 61.5684 3.04 62.2404 3.04C63.243 3.04 64.0484 3.296 64.6564 3.808C65.275 4.30933 65.6057 4.99733 65.6484 5.872H63.8244C63.7924 5.47733 63.6324 5.16267 63.3444 4.928C63.0564 4.69333 62.667 4.576 62.1764 4.576C61.6964 4.576 61.3284 4.66667 61.0724 4.848C60.8164 5.02933 60.6884 5.26933 60.6884 5.568C60.6884 5.80267 60.7737 6 60.9444 6.16C61.115 6.32 61.323 6.448 61.5684 6.544C61.8137 6.62933 62.1764 6.74133 62.6564 6.88C63.2964 7.05067 63.819 7.22667 64.2244 7.408C64.6404 7.57867 64.9977 7.83467 65.2964 8.176C65.595 8.51733 65.7497 8.97067 65.7604 9.536C65.7604 10.0373 65.6217 10.4853 65.3444 10.88C65.067 11.2747 64.6724 11.584 64.1604 11.808C63.659 12.032 63.067 12.144 62.3844 12.144ZM69.8593 4.672V9.552C69.8593 9.88267 69.9339 10.1227 70.0833 10.272C70.2433 10.4107 70.5099 10.48 70.8833 10.48H72.0033V12H70.5633C69.7419 12 69.1126 11.808 68.6753 11.424C68.2379 11.04 68.0193 10.416 68.0193 9.552V4.672H66.9793V3.184H68.0193V0.992H69.8593V3.184H72.0033V4.672H69.8593Z" fill="#FCF5E5"/>
</svg>
